<?xml version="1.0" encoding="UTF-8" standalone="no"?>
<svg
   xmlns:dc="http://purl.org/dc/elements/1.1/"
   xmlns:cc="http://creativecommons.org/ns#"
   xmlns:rdf="http://www.w3.org/1999/02/22-rdf-syntax-ns#"
   xmlns:svg="http://www.w3.org/2000/svg"
   xmlns="http://www.w3.org/2000/svg"
   xmlns:sodipodi="http://sodipodi.sourceforge.net/DTD/sodipodi-0.dtd"
   xmlns:inkscape="http://www.inkscape.org/namespaces/inkscape"
   inkscape:version="1.0 (4035a4f, 2020-05-01)"
   inkscape:export-ydpi="96"
   inkscape:export-xdpi="96"
   inkscape:export-filename="/home/solo/Dropbox/Basic Top Down/assets/assets.png"
   height="128"
   width="448"
   sodipodi:docname="asset_godot.svg"
   id="svg908"
   viewBox="0 0 448 128"
   version="1.1">
  <defs
     id="defs912">
    <filter
       id="filter1923"
       style="color-interpolation-filters:sRGB"
       x="-0.30000001"
       width="1.6"
       y="-0.5"
       height="2"
       inkscape:menu-tooltip="Cloudy watercolor effect"
       inkscape:label="Watercolor"
       inkscape:menu="Textures">
      <feGaussianBlur
         id="feGaussianBlur1905"
         result="result8"
         stdDeviation="15" />
      <feTurbulence
         id="feTurbulence1907"
         baseFrequency="0.025"
         numOctaves="5"
         type="fractalNoise"
         result="result7"
         seed="27" />
      <feComposite
         id="feComposite1909"
         in="result7"
         operator="over"
         result="result6"
         in2="result8" />
      <feColorMatrix
         id="feColorMatrix1911"
         values="1 0 0 0 0 0 1 0 0 0 0 0 1 0 0 0 0 0 6 -4 "
         result="result9" />
      <feDisplacementMap
         id="feDisplacementMap1913"
         result="result4"
         scale="45"
         yChannelSelector="A"
         xChannelSelector="A"
         in2="result9"
         in="result7" />
      <feComposite
         id="feComposite1915"
         in="result8"
         operator="in"
         result="result2"
         in2="result4" />
      <feComposite
         id="feComposite1917"
         in2="result9"
         operator="in"
         in="result2"
         result="fbSourceGraphic" />
      <feComposite
         k4="0"
         k3="0"
         id="feComposite1919"
         result="result91"
         in2="fbSourceGraphic"
         in="fbSourceGraphic"
         k1="0.5"
         k2="1"
         operator="arithmetic" />
      <feBlend
         id="feBlend1921"
         in2="result91"
         mode="multiply"
         in="fbSourceGraphic" />
    </filter>
    <filter
       id="filter2027"
       style="color-interpolation-filters:sRGB"
       inkscape:label="Chewing Gum"
       inkscape:menu="Protrusions"
       inkscape:menu-tooltip="Creates colorizable blotches which smoothly flow over the edges of the lines at their crossings"
       height="1.5"
       width="1.5"
       y="-0.25"
       x="-0.25">
      <feFlood
         id="feFlood2015"
         flood-opacity="1"
         flood-color="rgb(253,112,174)"
         result="result4" />
      <feGaussianBlur
         id="feGaussianBlur2017"
         stdDeviation="15"
         in="SourceAlpha"
         result="result1" />
      <feComposite
         k3="0"
         k1="0"
         id="feComposite2019"
         operator="arithmetic"
         k2="4"
         k4="-2"
         result="result3"
         in="result1"
         in2="result4" />
      <feColorMatrix
         id="feColorMatrix2021"
         values="1 0 0 0 0 0 1 0 0 0 0 0 1 0 0 0 0 0 10 -3"
         result="result2" />
      <feComposite
         id="feComposite2023"
         in2="result2"
         result="fbSourceGraphic"
         in="result4"
         operator="in" />
      <feBlend
         id="feBlend2025"
         result="result5"
         mode="normal"
         in="fbSourceGraphic"
         in2="SourceGraphic" />
    </filter>
  </defs>
  <sodipodi:namedview
     inkscape:snap-global="false"
     inkscape:document-rotation="0"
     inkscape:current-layer="svg908"
     inkscape:window-maximized="1"
     inkscape:window-y="40"
     inkscape:window-x="1680"
     inkscape:cy="84.997393"
     inkscape:cx="271.95897"
     inkscape:zoom="5.6206111"
     inkscape:snap-object-midpoints="true"
     inkscape:snap-page="true"
     showgrid="true"
     id="namedview910"
     inkscape:window-height="1016"
     inkscape:window-width="1920"
     inkscape:pageshadow="2"
     inkscape:pageopacity="0"
     guidetolerance="10"
     gridtolerance="10"
     objecttolerance="10"
     borderopacity="1"
     bordercolor="#666666"
     pagecolor="#242424">
    <inkscape:grid
       type="xygrid"
       id="grid1448"
       empspacing="32" />
  </sodipodi:namedview>
  <metadata
     id="metadata882">
    <rdf:RDF>
      <cc:Work
         rdf:about="">
        <dc:format>image/svg+xml</dc:format>
        <dc:type
           rdf:resource="http://purl.org/dc/dcmitype/StillImage" />
        <dc:title></dc:title>
      </cc:Work>
    </rdf:RDF>
  </metadata>
  <rect
     style="fill:#ff00ef;fill-opacity:1;stroke-width:8;stroke-linecap:square;paint-order:markers fill stroke"
     id="rect885-35"
     width="64"
     height="64"
     x="192"
     y="64"
     ry="0" />
  <rect
     style="fill:#07459e;fill-opacity:1;stroke-width:8;stroke-linecap:square;paint-order:markers fill stroke"
     id="rect1833"
     width="64"
     height="64"
     x="0"
     y="0"
     ry="9.7718019" />
  <rect
     ry="8.8756256"
     y="2.9347343"
     x="2.9347343"
     height="58.130531"
     width="58.130531"
     id="rect1833-0"
     style="fill:#022659;fill-opacity:1;stroke-width:8;stroke-linecap:square;paint-order:markers fill stroke" />
  <path
     id="path890-8"
     style="fill:#ff7f00;fill-opacity:1;stroke-width:1"
     d="m 9.7029667,42.732507 c 0.00298,0.799074 0.013436,1.674461 0.013436,1.848771 0,7.852653 9.9617293,11.626754 22.3379703,11.670192 h 0.03024 c 12.376247,-0.04344 22.334685,-3.817763 22.334685,-11.670192 0,-0.177535 0.01075,-1.049302 0.01433,-1.848771 l -7.43244,0.71661 -0.256206,3.669729 c -0.03083,0.442221 -0.382562,0.793984 -0.824827,0.825724 l -8.807651,0.628714 h -0.06427 c -0.437697,0 -0.815184,-0.321299 -0.879836,-0.760855 l -0.505246,-3.425176 h -7.186691 l -0.50494,3.425176 c -0.06785,0.460935 -0.479932,0.792542 -0.944115,0.758466 l -8.80766,-0.628415 c -0.442273,-0.03172 -0.794282,-0.383749 -0.825134,-0.82603 l -0.255907,-3.669729 z"
     sodipodi:nodetypes="csccscccccsccccccccc" />
  <path
     d="m 26.889569,8.2244812 c -2.32651,0.5171825 -4.62802,1.2371825 -6.785788,2.3232168 0.04934,1.905281 0.172436,3.730604 0.422126,5.58487 -0.837944,0.536889 -1.718392,0.997653 -2.501096,1.626045 -0.79523,0.611738 -1.607293,1.197253 -2.327398,1.912737 -1.4385,-0.951491 -2.961015,-1.845696 -4.529536,-2.635029 -1.6907123,1.819576 -3.2716623,3.783454 -4.5630238,5.980987 0.9716004,1.571649 1.9859066,3.045024 3.0810714,4.443139 h 0.030531 v 13.487567 c 0.024633,1.57e-4 0.049417,1.12e-4 0.073826,0.006 l 8.2686274,0.797329 c 0.433129,0.0418 0.772522,0.390489 0.802703,0.824528 l 0.25502,3.64997 7.212698,0.51451 0.49687,-3.368682 c 0.06442,-0.436816 0.439213,-0.760548 0.881038,-0.760548 h 8.723643 c 0.441587,0 0.816304,0.323732 0.880732,0.760548 l 0.496877,3.368682 7.213296,-0.51451 0.254713,-3.649999 c 0.03038,-0.434039 0.369559,-0.78254 0.80271,-0.824529 l 8.265336,-0.797328 c 0.02441,0 0.0489,-0.006 0.07353,-0.006 v -1.075951 h 0.003 V 27.461642 h 0.03075 c 1.095397,-1.398063 2.10874,-2.871438 3.080788,-4.443139 -1.290921,-2.197585 -2.872617,-4.161225 -4.563323,-5.980689 -1.568027,0.789333 -3.090992,1.683292 -4.529543,2.634738 -0.719828,-0.715492 -1.530757,-1.300708 -2.327099,-1.912446 -0.782429,-0.628504 -1.664168,-1.089208 -2.500499,-1.626045 0.249003,-1.854318 0.372261,-3.680001 0.421835,-5.585168 -2.15788,-1.0859831 -4.458905,-1.8060349 -6.786691,-2.32321 -0.929327,1.5619004 -1.779476,3.253314 -2.519631,4.906822 -0.877709,-0.146624 -1.759261,-0.201139 -2.642202,-0.211664 h -0.01732 -0.01672 c -0.884561,0.0106 -1.765472,0.06502 -2.643405,0.211664 -0.739707,-1.653508 -1.588907,-3.3449216 -2.51963,-4.906822 z M 20.34773,27.969576 c 2.752315,0 4.983059,2.229265 4.983059,4.980669 0,2.753234 -2.230744,4.983358 -4.983059,4.983358 -2.750949,0 -4.982462,-2.230124 -4.982462,-4.983358 0,-2.751404 2.231513,-4.980669 4.982462,-4.980669 z m 23.443823,0 c 2.750718,0 4.981866,2.229265 4.981866,4.980669 0,2.753234 -2.231148,4.983358 -4.981866,4.983358 -2.752777,0 -4.983656,-2.230124 -4.983656,-4.983358 0,-2.751404 2.230879,-4.980669 4.983656,-4.980669 z m -22.967578,1.973432 c -1.826645,0 -3.307694,1.481199 -3.307694,3.307397 0,1.826249 1.481049,3.306492 3.307694,3.306492 1.827586,0 3.307687,-1.480243 3.307687,-3.306492 0,-1.826198 -1.480101,-3.307397 -3.307687,-3.307397 z m 22.488646,0 c -1.826198,0 -3.305896,1.481199 -3.305896,3.307397 0,1.826249 1.479698,3.306492 3.305896,3.306492 1.828034,0 3.307687,-1.480243 3.307687,-3.306492 0,-1.826198 -1.479705,-3.307397 -3.307687,-3.307397 z m -11.24358,0.961755 c 0.88592,0 1.605718,0.653601 1.605718,1.457729 v 4.587239 c 0,0.804814 -0.719798,1.457729 -1.605718,1.457729 -0.885912,0 -1.603919,-0.652915 -1.603919,-1.457729 v -4.587239 c 0,-0.804128 0.718007,-1.457729 1.603919,-1.457729 z"
     style="fill:#ff7f00;fill-opacity:1;stroke-width:1"
     id="path890"
     sodipodi:nodetypes="ccccccccccccccccsssccccccccccccccccccccccccsssssssssssssssssssssssssss" />
  <rect
     ry="9.7718019"
     y="0"
     x="128"
     height="64"
     width="64"
     id="rect1833-8"
     style="fill:#07459e;fill-opacity:1;stroke-width:8;stroke-linecap:square;paint-order:markers fill stroke" />
  <rect
     style="fill:#022659;fill-opacity:1;stroke-width:8;stroke-linecap:square;paint-order:markers fill stroke"
     id="rect1833-0-9"
     width="58.130531"
     height="58.130531"
     x="130.93474"
     y="2.9347382"
     ry="8.8756256" />
  <path
     sodipodi:nodetypes="csccscccccsccccccccc"
     d="m 137.70297,42.73251 c 0.003,0.79907 0.0134,1.67446 0.0134,1.84877 0,7.85265 9.96173,11.62675 22.33797,11.67019 h 0.0302 c 12.37624,-0.0434 22.33468,-3.81776 22.33468,-11.67019 0,-0.17754 0.0107,-1.0493 0.0143,-1.84877 l -7.43244,0.71661 -0.25621,3.66973 c -0.0308,0.44222 -0.38256,0.79398 -0.82483,0.82572 l -8.80765,0.62871 h -0.0643 c -0.43769,0 -0.81518,-0.3213 -0.87983,-0.76085 l -0.50525,-3.42518 h -7.18669 l -0.50494,3.42518 c -0.0679,0.46093 -0.47993,0.79254 -0.94411,0.75847 l -8.80766,-0.62842 c -0.44228,-0.0317 -0.79429,-0.38375 -0.82514,-0.82603 l -0.2559,-3.66973 z"
     style="fill:#ff7f00;fill-opacity:1;stroke-width:1"
     id="path890-8-2" />
  <path
     sodipodi:nodetypes="ccccccccccccccccsssccccccccccccccccccccccccsssssssssssssssssssssssssss"
     id="path890-6"
     style="fill:#ff7f00;fill-opacity:1;stroke-width:1"
     d="m 154.88957,8.224481 c -2.32651,0.517183 -4.62802,1.237183 -6.78579,2.323217 0.0493,1.905281 0.17244,3.730604 0.42213,5.58487 -0.83795,0.536889 -1.71839,0.997653 -2.5011,1.626045 -0.79523,0.611738 -1.60729,1.197253 -2.3274,1.912737 -1.4385,-0.951491 -2.96101,-1.845696 -4.52953,-2.635029 -1.69071,1.819576 -3.27167,3.783454 -4.56303,5.980987 0.9716,1.571649 1.98591,3.045024 3.08107,4.443139 h 0.0305 V 40.94801 c 0.0246,1.6e-4 0.0494,1.2e-4 0.0738,0.006 l 8.26863,0.79733 c 0.43313,0.0418 0.77252,0.39049 0.8027,0.82453 l 0.25502,3.64997 7.2127,0.51451 0.49687,-3.36868 c 0.0644,-0.43682 0.43922,-0.76055 0.88104,-0.76055 h 8.72364 c 0.44159,0 0.81631,0.32373 0.88073,0.76055 l 0.49688,3.36868 7.2133,-0.51451 0.25471,-3.65 c 0.0304,-0.43404 0.36956,-0.78254 0.80271,-0.82453 l 8.26533,-0.79732 c 0.0244,0 0.0489,-0.006 0.0735,-0.006 v -1.07596 h 0.003 V 27.461642 h 0.0307 c 1.0954,-1.398063 2.10874,-2.871438 3.08079,-4.443139 -1.29092,-2.197585 -2.87261,-4.161225 -4.56332,-5.980689 -1.56803,0.789333 -3.09099,1.683292 -4.52954,2.634738 -0.71983,-0.715492 -1.53076,-1.300708 -2.3271,-1.912446 -0.78243,-0.628504 -1.66417,-1.089208 -2.5005,-1.626045 0.249,-1.854318 0.37226,-3.680001 0.42183,-5.585168 -2.15788,-1.085983 -4.4589,-1.806035 -6.78669,-2.32321 -0.92932,1.5619 -1.77947,3.253314 -2.51962,4.906822 -0.87771,-0.146624 -1.75927,-0.201139 -2.64221,-0.211664 h -0.0173 -0.0167 c -0.88456,0.0106 -1.76547,0.06502 -2.6434,0.211664 -0.73971,-1.653508 -1.58891,-3.344922 -2.51963,-4.906822 z m -6.54184,19.745095 c 2.75231,0 4.98306,2.229265 4.98306,4.980669 0,2.753234 -2.23075,4.983355 -4.98306,4.983355 -2.75095,0 -4.98246,-2.230121 -4.98246,-4.983355 0,-2.751404 2.23151,-4.980669 4.98246,-4.980669 z m 23.44382,0 c 2.75072,0 4.98187,2.229265 4.98187,4.980669 0,2.753234 -2.23115,4.983355 -4.98187,4.983355 -2.75277,0 -4.98365,-2.230121 -4.98365,-4.983355 0,-2.751404 2.23088,-4.980669 4.98365,-4.980669 z m -22.96757,1.973432 c -1.82665,0 -3.3077,1.481199 -3.3077,3.307397 0,1.826249 1.48105,3.306495 3.3077,3.306495 1.82758,0 3.30768,-1.480246 3.30768,-3.306495 0,-1.826198 -1.4801,-3.307397 -3.30768,-3.307397 z m 22.48864,0 c -1.8262,0 -3.3059,1.481199 -3.3059,3.307397 0,1.826249 1.4797,3.306495 3.3059,3.306495 1.82803,0 3.30769,-1.480246 3.30769,-3.306495 0,-1.826198 -1.47971,-3.307397 -3.30769,-3.307397 z m -11.24358,0.961755 c 0.88592,0 1.60572,0.653601 1.60572,1.457729 v 4.587238 c 0,0.80482 -0.7198,1.45773 -1.60572,1.45773 -0.88591,0 -1.60392,-0.65291 -1.60392,-1.45773 v -4.587238 c 0,-0.804128 0.71801,-1.457729 1.60392,-1.457729 z" />
  <rect
     ry="9.7718019"
     y="0"
     x="256"
     height="64"
     width="64"
     id="rect1833-9"
     style="fill:#07459e;fill-opacity:1;stroke-width:8;stroke-linecap:square;paint-order:markers fill stroke" />
  <rect
     style="fill:#022659;fill-opacity:1;stroke-width:8;stroke-linecap:square;paint-order:markers fill stroke"
     id="rect1833-0-5"
     width="58.130531"
     height="58.130531"
     x="258.93475"
     y="2.9347382"
     ry="8.8756256" />
  <path
     sodipodi:nodetypes="csccscccccsccccccccc"
     d="m 265.70297,42.73251 c 0.003,0.79907 0.0134,1.67446 0.0134,1.84877 0,7.85265 9.96173,11.62675 22.33797,11.67019 h 0.0302 c 12.37625,-0.0434 22.33469,-3.81776 22.33469,-11.67019 0,-0.17754 0.0108,-1.0493 0.0143,-1.84877 l -7.43244,0.71661 -0.25621,3.66973 c -0.0308,0.44222 -0.38256,0.79398 -0.82483,0.82572 l -8.80765,0.62871 h -0.0643 c -0.43769,0 -0.81518,-0.3213 -0.87983,-0.76085 l -0.50525,-3.42518 h -7.18669 l -0.50494,3.42518 c -0.0678,0.46093 -0.47993,0.79254 -0.94411,0.75847 l -8.80766,-0.62842 c -0.44228,-0.0317 -0.79429,-0.38375 -0.82514,-0.82603 l -0.2559,-3.66973 z"
     style="fill:#ff7f00;fill-opacity:1;stroke-width:1"
     id="path890-8-0" />
  <path
     sodipodi:nodetypes="ccccccccccccccccsssccccccccccccccccccccccccsssssssssssssssssssssssssss"
     id="path890-4"
     style="fill:#ff7f00;fill-opacity:1;stroke-width:1"
     d="m 282.88957,8.224481 c -2.32651,0.517183 -4.62802,1.237183 -6.78579,2.323217 0.0493,1.905281 0.17244,3.730604 0.42213,5.58487 -0.83795,0.536889 -1.7184,0.997653 -2.5011,1.626045 -0.79523,0.611738 -1.60729,1.197253 -2.3274,1.912737 -1.4385,-0.951491 -2.96101,-1.845696 -4.52953,-2.635029 -1.69072,1.819576 -3.27167,3.783454 -4.56303,5.980987 0.9716,1.571649 1.98591,3.045024 3.08107,4.443139 h 0.0305 V 40.94801 c 0.0246,1.6e-4 0.0494,1.2e-4 0.0738,0.006 l 8.26863,0.79733 c 0.43313,0.0418 0.77252,0.39049 0.8027,0.82453 l 0.25502,3.64997 7.2127,0.51451 0.49687,-3.36868 c 0.0644,-0.43682 0.43921,-0.76055 0.88104,-0.76055 h 8.72364 c 0.44159,0 0.8163,0.32373 0.88073,0.76055 l 0.49688,3.36868 7.2133,-0.51451 0.25471,-3.65 c 0.0304,-0.43404 0.36956,-0.78254 0.80271,-0.82453 l 8.26533,-0.79732 c 0.0244,0 0.0489,-0.006 0.0735,-0.006 v -1.07596 h 0.003 V 27.461642 h 0.0308 c 1.0954,-1.398063 2.10874,-2.871438 3.08079,-4.443139 -1.29092,-2.197585 -2.87261,-4.161225 -4.56332,-5.980689 -1.56803,0.789333 -3.09099,1.683292 -4.52954,2.634738 -0.71983,-0.715492 -1.53076,-1.300708 -2.3271,-1.912446 -0.78243,-0.628504 -1.66417,-1.089208 -2.5005,-1.626045 0.249,-1.854318 0.37226,-3.680001 0.42183,-5.585168 -2.15788,-1.085983 -4.4589,-1.806035 -6.78669,-2.32321 -0.92932,1.5619 -1.77947,3.253314 -2.51963,4.906822 -0.87771,-0.146624 -1.75926,-0.201139 -2.6422,-0.211664 h -0.0173 -0.0167 c -0.88456,0.0106 -1.76547,0.06502 -2.64341,0.211664 -0.7397,-1.653508 -1.5889,-3.344922 -2.51962,-4.906822 z m -6.54184,19.745095 c 2.75231,0 4.98306,2.229265 4.98306,4.980669 0,2.753234 -2.23075,4.983355 -4.98306,4.983355 -2.75095,0 -4.98246,-2.230121 -4.98246,-4.983355 0,-2.751404 2.23151,-4.980669 4.98246,-4.980669 z m 23.44382,0 c 2.75072,0 4.98187,2.229265 4.98187,4.980669 0,2.753234 -2.23115,4.983355 -4.98187,4.983355 -2.75277,0 -4.98365,-2.230121 -4.98365,-4.983355 0,-2.751404 2.23088,-4.980669 4.98365,-4.980669 z m -22.96758,1.973432 c -1.82664,0 -3.30769,1.481199 -3.30769,3.307397 0,1.826249 1.48105,3.306495 3.30769,3.306495 1.82759,0 3.30769,-1.480246 3.30769,-3.306495 0,-1.826198 -1.4801,-3.307397 -3.30769,-3.307397 z m 22.48865,0 c -1.8262,0 -3.3059,1.481199 -3.3059,3.307397 0,1.826249 1.4797,3.306495 3.3059,3.306495 1.82803,0 3.30769,-1.480246 3.30769,-3.306495 0,-1.826198 -1.47971,-3.307397 -3.30769,-3.307397 z m -11.24358,0.961755 c 0.88592,0 1.60572,0.653601 1.60572,1.457729 v 4.587238 c 0,0.80482 -0.7198,1.45773 -1.60572,1.45773 -0.88591,0 -1.60392,-0.65291 -1.60392,-1.45773 v -4.587238 c 0,-0.804128 0.71801,-1.457729 1.60392,-1.457729 z" />
  <rect
     ry="9.7718019"
     y="0"
     x="384"
     height="64"
     width="64"
     id="rect1833-7"
     style="fill:#07459e;fill-opacity:1;stroke-width:8;stroke-linecap:square;paint-order:markers fill stroke" />
  <rect
     style="fill:#022659;fill-opacity:1;stroke-width:8;stroke-linecap:square;paint-order:markers fill stroke"
     id="rect1833-0-1"
     width="58.130531"
     height="58.130531"
     x="386.93475"
     y="2.9347382"
     ry="8.8756256" />
  <path
     sodipodi:nodetypes="csccscccccsccccccccc"
     d="m 393.70297,42.73251 c 0.003,0.79907 0.0134,1.67446 0.0134,1.84877 0,7.85265 9.96173,11.62675 22.33797,11.67019 h 0.0302 c 12.37625,-0.0434 22.33469,-3.81776 22.33469,-11.67019 0,-0.17754 0.0108,-1.0493 0.0143,-1.84877 l -7.43244,0.71661 -0.25621,3.66973 c -0.0308,0.44222 -0.38256,0.79398 -0.82483,0.82572 l -8.80765,0.62871 h -0.0643 c -0.43769,0 -0.81518,-0.3213 -0.87983,-0.76085 l -0.50525,-3.42518 h -7.18669 l -0.50494,3.42518 c -0.0678,0.46093 -0.47993,0.79254 -0.94411,0.75847 l -8.80766,-0.62842 c -0.44228,-0.0317 -0.79429,-0.38375 -0.82514,-0.82603 l -0.2559,-3.66973 z"
     style="fill:#ff7f00;fill-opacity:1;stroke-width:1"
     id="path890-8-7" />
  <path
     sodipodi:nodetypes="ccccccccccccccccsssccccccccccccccccccccccccsssssssssssssssssssssssssss"
     id="path890-2"
     style="fill:#ff7f00;fill-opacity:1;stroke-width:1"
     d="m 410.88957,8.224481 c -2.32651,0.517183 -4.62802,1.237183 -6.78579,2.323217 0.0493,1.905281 0.17244,3.730604 0.42213,5.58487 -0.83795,0.536889 -1.7184,0.997653 -2.5011,1.626045 -0.79523,0.611738 -1.60729,1.197253 -2.3274,1.912737 -1.4385,-0.951491 -2.96101,-1.845696 -4.52953,-2.635029 -1.69072,1.819576 -3.27167,3.783454 -4.56303,5.980987 0.9716,1.571649 1.98591,3.045024 3.08107,4.443139 h 0.0305 V 40.94801 c 0.0246,1.6e-4 0.0494,1.2e-4 0.0738,0.006 l 8.26863,0.79733 c 0.43313,0.0418 0.77252,0.39049 0.8027,0.82453 l 0.25502,3.64997 7.2127,0.51451 0.49687,-3.36868 c 0.0644,-0.43682 0.43921,-0.76055 0.88104,-0.76055 h 8.72364 c 0.44159,0 0.8163,0.32373 0.88073,0.76055 l 0.49688,3.36868 7.2133,-0.51451 0.25471,-3.65 c 0.0304,-0.43404 0.36956,-0.78254 0.80271,-0.82453 l 8.26533,-0.79732 c 0.0244,0 0.0489,-0.006 0.0735,-0.006 v -1.07596 h 0.003 V 27.461642 h 0.0308 c 1.0954,-1.398063 2.10874,-2.871438 3.08079,-4.443139 -1.29092,-2.197585 -2.87261,-4.161225 -4.56332,-5.980689 -1.56803,0.789333 -3.09099,1.683292 -4.52954,2.634738 -0.71983,-0.715492 -1.53076,-1.300708 -2.3271,-1.912446 -0.78243,-0.628504 -1.66417,-1.089208 -2.5005,-1.626045 0.249,-1.854318 0.37226,-3.680001 0.42183,-5.585168 -2.15788,-1.085983 -4.4589,-1.806035 -6.78669,-2.32321 -0.92932,1.5619 -1.77947,3.253314 -2.51963,4.906822 -0.87771,-0.146624 -1.75926,-0.201139 -2.6422,-0.211664 h -0.0173 -0.0167 c -0.88456,0.0106 -1.76547,0.06502 -2.64341,0.211664 -0.7397,-1.653508 -1.5889,-3.344922 -2.51962,-4.906822 z m -6.54184,19.745095 c 2.75231,0 4.98306,2.229265 4.98306,4.980669 0,2.753234 -2.23075,4.983355 -4.98306,4.983355 -2.75095,0 -4.98246,-2.230121 -4.98246,-4.983355 0,-2.751404 2.23151,-4.980669 4.98246,-4.980669 z m 23.44382,0 c 2.75072,0 4.98187,2.229265 4.98187,4.980669 0,2.753234 -2.23115,4.983355 -4.98187,4.983355 -2.75277,0 -4.98365,-2.230121 -4.98365,-4.983355 0,-2.751404 2.23088,-4.980669 4.98365,-4.980669 z m -22.96758,1.973432 c -1.82664,0 -3.30769,1.481199 -3.30769,3.307397 0,1.826249 1.48105,3.306495 3.30769,3.306495 1.82759,0 3.30769,-1.480246 3.30769,-3.306495 0,-1.826198 -1.4801,-3.307397 -3.30769,-3.307397 z m 22.48865,0 c -1.8262,0 -3.3059,1.481199 -3.3059,3.307397 0,1.826249 1.4797,3.306495 3.3059,3.306495 1.82803,0 3.30769,-1.480246 3.30769,-3.306495 0,-1.826198 -1.47971,-3.307397 -3.30769,-3.307397 z m -11.24358,0.961755 c 0.88592,0 1.60572,0.653601 1.60572,1.457729 v 4.587238 c 0,0.80482 -0.7198,1.45773 -1.60572,1.45773 -0.88591,0 -1.60392,-0.65291 -1.60392,-1.45773 v -4.587238 c 0,-0.804128 0.71801,-1.457729 1.60392,-1.457729 z" />
  <rect
     ry="9.7718019"
     y="64"
     x="64"
     height="64"
     width="64"
     id="rect1833-2"
     style="fill:#07459e;fill-opacity:1;stroke-width:8;stroke-linecap:square;paint-order:markers fill stroke" />
  <rect
     style="fill:#022659;fill-opacity:1;stroke-width:8;stroke-linecap:square;paint-order:markers fill stroke"
     id="rect1833-0-2"
     width="58.130531"
     height="58.130531"
     x="66.934723"
     y="66.934738"
     ry="8.8756256" />
  <path
     sodipodi:nodetypes="csccscccccsccccccccc"
     d="m 73.70297,106.73251 c 0.003,0.79907 0.0134,1.67446 0.0134,1.84877 0,7.85265 9.96173,11.62675 22.33797,11.67019 h 0.0302 c 12.37625,-0.0434 22.33469,-3.81776 22.33469,-11.67019 0,-0.17754 0.0107,-1.0493 0.0143,-1.84877 l -7.43244,0.71661 -0.25621,3.66973 c -0.0308,0.44222 -0.38256,0.79398 -0.82482,0.82572 l -8.80766,0.62871 h -0.0643 c -0.43769,0 -0.81518,-0.3213 -0.87983,-0.76085 l -0.50525,-3.42518 h -7.18669 l -0.50494,3.42518 c -0.0679,0.46093 -0.47993,0.79254 -0.94411,0.75847 l -8.80766,-0.62842 c -0.44228,-0.0317 -0.79429,-0.38375 -0.82514,-0.82603 l -0.2559,-3.66973 z"
     style="fill:#ff7f00;fill-opacity:1;stroke-width:1"
     id="path890-8-6" />
  <path
     sodipodi:nodetypes="ccccccccccccccccsssccccccccccccccccccccccccsssssssssssssssssssssssssss"
     id="path890-1"
     style="fill:#ff7f00;fill-opacity:1;stroke-width:1"
     d="m 90.88957,72.224481 c -2.32651,0.517183 -4.62802,1.237183 -6.78579,2.323217 0.0493,1.905281 0.17244,3.730604 0.42213,5.58487 -0.83795,0.536889 -1.71839,0.997653 -2.5011,1.626045 -0.79523,0.611738 -1.60729,1.197253 -2.3274,1.912737 -1.4385,-0.951491 -2.96101,-1.845696 -4.52953,-2.635029 -1.69072,1.819576 -3.27167,3.783454 -4.56303,5.980987 0.9716,1.571649 1.98591,3.045024 3.08107,4.443139 h 0.0305 v 13.487563 c 0.0246,1.6e-4 0.0494,1.2e-4 0.0738,0.006 l 8.26863,0.79733 c 0.43313,0.0418 0.77252,0.39049 0.8027,0.82453 l 0.25502,3.64997 7.2127,0.51451 0.49687,-3.36868 c 0.0644,-0.43682 0.43921,-0.76055 0.88104,-0.76055 h 8.72364 c 0.44159,0 0.8163,0.32373 0.88073,0.76055 l 0.49688,3.36868 7.2133,-0.51451 0.25471,-3.65 c 0.0304,-0.43404 0.36956,-0.78254 0.80271,-0.82453 l 8.26533,-0.79732 c 0.0244,0 0.0489,-0.006 0.0735,-0.006 v -1.07596 h 0.003 V 91.461642 h 0.0308 c 1.0954,-1.398063 2.10874,-2.871438 3.08079,-4.443139 -1.29092,-2.197585 -2.87261,-4.161225 -4.56332,-5.980689 -1.56803,0.789333 -3.09099,1.683292 -4.52954,2.634738 -0.71983,-0.715492 -1.53076,-1.300708 -2.3271,-1.912446 -0.78243,-0.628504 -1.66417,-1.089208 -2.5005,-1.626045 0.249,-1.854318 0.37226,-3.680001 0.42183,-5.585168 -2.15788,-1.085983 -4.4589,-1.806035 -6.78669,-2.32321 -0.92932,1.5619 -1.77947,3.253314 -2.51963,4.906822 -0.87771,-0.146624 -1.75926,-0.201139 -2.6422,-0.211664 h -0.0173 -0.0167 c -0.88456,0.0106 -1.76547,0.06502 -2.6434,0.211664 -0.73971,-1.653508 -1.58891,-3.344922 -2.51963,-4.906822 z m -6.54184,19.745095 c 2.75232,0 4.98306,2.229265 4.98306,4.980669 0,2.753234 -2.23074,4.983355 -4.98306,4.983355 -2.75095,0 -4.98246,-2.230121 -4.98246,-4.983355 0,-2.751404 2.23151,-4.980669 4.98246,-4.980669 z m 23.44382,0 c 2.75072,0 4.98187,2.229265 4.98187,4.980669 0,2.753234 -2.23115,4.983355 -4.98187,4.983355 -2.75277,0 -4.98365,-2.230121 -4.98365,-4.983355 0,-2.751404 2.23088,-4.980669 4.98365,-4.980669 z m -22.96757,1.973432 c -1.82665,0 -3.3077,1.481199 -3.3077,3.307397 0,1.826249 1.48105,3.306495 3.3077,3.306495 1.82758,0 3.30768,-1.480246 3.30768,-3.306495 0,-1.826198 -1.4801,-3.307397 -3.30768,-3.307397 z m 22.48864,0 c -1.8262,0 -3.30589,1.481199 -3.30589,3.307397 0,1.826249 1.47969,3.306495 3.30589,3.306495 1.82803,0 3.30769,-1.480246 3.30769,-3.306495 0,-1.826198 -1.47971,-3.307397 -3.30769,-3.307397 z m -11.24358,0.961755 c 0.88592,0 1.60572,0.653601 1.60572,1.457729 v 4.587238 c 0,0.80482 -0.7198,1.45773 -1.60572,1.45773 -0.88591,0 -1.60392,-0.65291 -1.60392,-1.45773 v -4.587238 c 0,-0.804128 0.71801,-1.457729 1.60392,-1.457729 z" />
  <rect
     ry="0"
     y="64"
     x="192"
     height="64"
     width="64"
     id="rect1833-6"
     style="fill:#3b3b3b;fill-opacity:1;stroke-width:8;stroke-linecap:square;paint-order:markers fill stroke" />
  <rect
     style="fill:#ffffff;fill-opacity:0.07468355;stroke-width:8;stroke-linecap:square;paint-order:markers fill stroke"
     id="rect1833-0-15"
     width="58.130531"
     height="58.130531"
     x="194.93472"
     y="66.934738"
     ry="8.8756256" />
  <path
     sodipodi:nodetypes="csccscccccsccccccccc"
     d="m 201.70297,106.73251 c 0.003,0.79907 0.0134,1.67446 0.0134,1.84877 0,7.85265 9.96173,11.62675 22.33797,11.67019 h 0.0302 c 12.37625,-0.0434 22.33469,-3.81776 22.33469,-11.67019 0,-0.17754 0.0107,-1.0493 0.0143,-1.84877 l -7.43244,0.71661 -0.25621,3.66973 c -0.0308,0.44222 -0.38256,0.79398 -0.82482,0.82572 l -8.80766,0.62871 h -0.0643 c -0.43769,0 -0.81518,-0.3213 -0.87983,-0.76085 l -0.50525,-3.42518 h -7.18669 l -0.50494,3.42518 c -0.0679,0.46093 -0.47993,0.79254 -0.94411,0.75847 l -8.80766,-0.62842 c -0.44228,-0.0317 -0.79429,-0.38375 -0.82514,-0.82603 l -0.2559,-3.66973 z"
     style="fill:#3b3b3b;fill-opacity:1;stroke-width:1"
     id="path890-8-9" />
  <path
     sodipodi:nodetypes="ccccccccccccccccsssccccccccccccccccccccccccsssssssssssssssssssssssssss"
     id="path890-49"
     style="fill:#3b3b3b;fill-opacity:1;stroke-width:1"
     d="m 218.88957,72.224481 c -2.32651,0.517183 -4.62802,1.237183 -6.78579,2.323217 0.0493,1.905281 0.17244,3.730604 0.42213,5.58487 -0.83795,0.536889 -1.71839,0.997653 -2.5011,1.626045 -0.79523,0.611738 -1.60729,1.197253 -2.3274,1.912737 -1.4385,-0.951491 -2.96101,-1.845696 -4.52953,-2.635029 -1.69072,1.819576 -3.27167,3.783454 -4.56303,5.980987 0.9716,1.571649 1.98591,3.045024 3.08107,4.443139 h 0.0305 v 13.487563 c 0.0246,1.6e-4 0.0494,1.2e-4 0.0738,0.006 l 8.26863,0.79733 c 0.43313,0.0418 0.77252,0.39049 0.8027,0.82453 l 0.25502,3.64997 7.2127,0.51451 0.49687,-3.36868 c 0.0644,-0.43682 0.43921,-0.76055 0.88104,-0.76055 h 8.72364 c 0.44159,0 0.8163,0.32373 0.88073,0.76055 l 0.49688,3.36868 7.2133,-0.51451 0.25471,-3.65 c 0.0304,-0.43404 0.36956,-0.78254 0.80271,-0.82453 l 8.26533,-0.79732 c 0.0244,0 0.0489,-0.006 0.0735,-0.006 v -1.07596 h 0.003 V 91.461642 h 0.0308 c 1.0954,-1.398063 2.10874,-2.871438 3.08079,-4.443139 -1.29092,-2.197585 -2.87261,-4.161225 -4.56332,-5.980689 -1.56803,0.789333 -3.09099,1.683292 -4.52954,2.634738 -0.71983,-0.715492 -1.53076,-1.300708 -2.3271,-1.912446 -0.78243,-0.628504 -1.66417,-1.089208 -2.5005,-1.626045 0.249,-1.854318 0.37226,-3.680001 0.42183,-5.585168 -2.15788,-1.085983 -4.4589,-1.806035 -6.78669,-2.32321 -0.92932,1.5619 -1.77947,3.253314 -2.51963,4.906822 -0.87771,-0.146624 -1.75926,-0.201139 -2.6422,-0.211664 h -0.0173 -0.0167 c -0.88456,0.0106 -1.76547,0.06502 -2.6434,0.211664 -0.73971,-1.653508 -1.58891,-3.344922 -2.51963,-4.906822 z m -6.54184,19.745095 c 2.75232,0 4.98306,2.229265 4.98306,4.980669 0,2.753234 -2.23074,4.983355 -4.98306,4.983355 -2.75095,0 -4.98246,-2.230121 -4.98246,-4.983355 0,-2.751404 2.23151,-4.980669 4.98246,-4.980669 z m 23.44382,0 c 2.75072,0 4.98187,2.229265 4.98187,4.980669 0,2.753234 -2.23115,4.983355 -4.98187,4.983355 -2.75277,0 -4.98365,-2.230121 -4.98365,-4.983355 0,-2.751404 2.23088,-4.980669 4.98365,-4.980669 z m -22.96757,1.973432 c -1.82665,0 -3.3077,1.481199 -3.3077,3.307397 0,1.826249 1.48105,3.306495 3.3077,3.306495 1.82758,0 3.30768,-1.480246 3.30768,-3.306495 0,-1.826198 -1.4801,-3.307397 -3.30768,-3.307397 z m 22.48864,0 c -1.8262,0 -3.30589,1.481199 -3.30589,3.307397 0,1.826249 1.47969,3.306495 3.30589,3.306495 1.82803,0 3.30769,-1.480246 3.30769,-3.306495 0,-1.826198 -1.47971,-3.307397 -3.30769,-3.307397 z m -11.24358,0.961755 c 0.88592,0 1.60572,0.653601 1.60572,1.457729 v 4.587238 c 0,0.80482 -0.7198,1.45773 -1.60572,1.45773 -0.88591,0 -1.60392,-0.65291 -1.60392,-1.45773 v -4.587238 c 0,-0.804128 0.71801,-1.457729 1.60392,-1.457729 z" />
  <path
     style="fill:#ffffff;fill-opacity:1;stroke-width:8;stroke-linecap:square;paint-order:markers fill stroke"
     d="m 179.16196,27.07391 9.85218,4.997142 -9.85218,4.855038 z"
     id="path1963" />
  <path
     id="path1963-0"
     d="m 268.63363,27.07391 -9.85218,4.997142 9.85218,4.855038 z"
     style="fill:#ffffff;fill-opacity:1;stroke-width:8;stroke-linecap:square;paint-order:markers fill stroke" />
  <path
     style="fill:#ffffff;fill-opacity:1;stroke-width:8;stroke-linecap:square;paint-order:markers fill stroke"
     d="m 411.07391,50.66678 4.99714,9.85218 4.85504,-9.85218 z"
     id="path1963-0-9" />
  <path
     id="path1963-0-9-1"
     d="m 91.07391,76.932587 4.99714,-9.85218 4.85504,9.85218 z"
     style="fill:#ffffff;fill-opacity:1;stroke-width:8;stroke-linecap:square;paint-order:markers fill stroke" />
  <path
     id="path890-8-6-1"
     style="fill:#e4ff00;fill-opacity:1;stroke-width:1"
     d="m 393.70297,106.73251 c 0.003,0.79907 0.0134,1.67446 0.0134,1.84877 0,7.85265 9.96173,11.62675 22.33797,11.67019 h 0.0302 c 12.37625,-0.0434 22.33469,-3.81776 22.33469,-11.67019 0,-0.17754 0.0107,-1.0493 0.0143,-1.84877 l -7.43244,0.71661 -0.25621,3.66972 c -0.0308,0.44223 -0.38256,0.79399 -0.82482,0.82573 l -8.80766,0.62871 h -0.0643 c -0.43769,0 -0.81518,-0.3213 -0.87983,-0.76085 l -0.50525,-3.42518 h -7.18669 l -0.50494,3.42518 c -0.0679,0.46093 -0.47993,0.79254 -0.94411,0.75846 l -8.80766,-0.62841 c -0.44228,-0.0317 -0.79429,-0.38375 -0.82514,-0.82603 l -0.2559,-3.66973 z"
     sodipodi:nodetypes="csccscccccsccccccccc" />
  <path
     d="m 410.88957,72.224481 c -2.32651,0.517183 -4.62802,1.237182 -6.78579,2.323217 0.0493,1.905281 0.17244,3.730604 0.42213,5.584869 -0.83795,0.536889 -1.71839,0.997653 -2.5011,1.626045 -0.79523,0.611738 -1.60729,1.197253 -2.3274,1.912737 -1.4385,-0.951491 -2.96101,-1.845696 -4.52953,-2.635029 -1.69072,1.819576 -3.27167,3.783454 -4.56303,5.980987 0.9716,1.571649 1.98591,3.045024 3.08107,4.443139 h 0.0305 v 13.487564 c 0.0246,1.6e-4 0.0494,1.2e-4 0.0738,0.006 l 8.26863,0.79733 c 0.43313,0.0418 0.77252,0.39049 0.8027,0.82453 l 0.25502,3.64997 7.2127,0.51451 0.49687,-3.36868 c 0.0644,-0.43682 0.43921,-0.76055 0.88104,-0.76055 h 8.72364 c 0.44159,0 0.8163,0.32373 0.88073,0.76055 l 0.49688,3.36868 7.2133,-0.51451 0.25471,-3.65 c 0.0304,-0.43404 0.36956,-0.78254 0.80271,-0.82453 l 8.26533,-0.79733 c 0.0244,0 0.0489,-0.006 0.0735,-0.006 v -1.07595 h 0.003 V 91.461641 h 0.0308 c 1.0954,-1.398063 2.10874,-2.871438 3.08079,-4.443139 -1.29092,-2.197585 -2.87261,-4.161225 -4.56332,-5.980689 -1.56803,0.789333 -3.09099,1.683292 -4.52954,2.634738 -0.71983,-0.715492 -1.53076,-1.300708 -2.3271,-1.912446 -0.78243,-0.628504 -1.66417,-1.089208 -2.5005,-1.626045 0.249,-1.854317 0.37226,-3.68 0.42183,-5.585167 -2.15788,-1.085983 -4.4589,-1.806035 -6.78669,-2.32321 -0.92932,1.5619 -1.77947,3.253314 -2.51963,4.906822 -0.87771,-0.146624 -1.75926,-0.201139 -2.6422,-0.211664 h -0.0173 -0.0167 c -0.88456,0.0106 -1.76547,0.06502 -2.6434,0.211664 -0.73971,-1.653508 -1.58891,-3.344922 -2.51963,-4.906822 z m -6.54184,19.745094 c 2.75232,0 4.98306,2.229265 4.98306,4.980669 0,2.753234 -2.23074,4.983356 -4.98306,4.983356 -2.75095,0 -4.98246,-2.230122 -4.98246,-4.983356 0,-2.751404 2.23151,-4.980669 4.98246,-4.980669 z m 23.44382,0 c 2.75072,0 4.98187,2.229265 4.98187,4.980669 0,2.753234 -2.23115,4.983356 -4.98187,4.983356 -2.75277,0 -4.98365,-2.230122 -4.98365,-4.983356 0,-2.751404 2.23088,-4.980669 4.98365,-4.980669 z m -22.96757,1.973432 c -1.82665,0 -3.3077,1.481199 -3.3077,3.307397 0,1.826249 1.48105,3.306496 3.3077,3.306496 1.82758,0 3.30768,-1.480247 3.30768,-3.306496 0,-1.826198 -1.4801,-3.307397 -3.30768,-3.307397 z m 22.48864,0 c -1.8262,0 -3.30589,1.481199 -3.30589,3.307397 0,1.826249 1.47969,3.306496 3.30589,3.306496 1.82803,0 3.30769,-1.480247 3.30769,-3.306496 0,-1.826198 -1.47971,-3.307397 -3.30769,-3.307397 z m -11.24358,0.961755 c 0.88592,0 1.60572,0.653601 1.60572,1.457729 v 4.587239 c 0,0.80481 -0.7198,1.45773 -1.60572,1.45773 -0.88591,0 -1.60392,-0.65292 -1.60392,-1.45773 v -4.587239 c 0,-0.804128 0.71801,-1.457729 1.60392,-1.457729 z"
     style="fill:#e4ff00;fill-opacity:1;stroke-width:1"
     id="path890-1-1"
     sodipodi:nodetypes="ccccccccccccccccsssccccccccccccccccccccccccsssssssssssssssssssssssssss" />
  <rect
     ry="9.7718019"
     y="0"
     x="64"
     height="64"
     width="64"
     id="rect1833-1"
     style="fill:#07459e;fill-opacity:1;stroke-width:8;stroke-linecap:square;paint-order:markers fill stroke" />
  <rect
     style="fill:#022659;fill-opacity:1;stroke-width:8;stroke-linecap:square;paint-order:markers fill stroke"
     id="rect1833-0-27"
     width="58.130531"
     height="58.130531"
     x="66.934738"
     y="2.9347343"
     ry="8.8756256" />
  <path
     sodipodi:nodetypes="csccscccccsccccccccc"
     d="m 73.702967,42.732507 c 0.003,0.799074 0.01344,1.674461 0.01344,1.848771 0,7.852653 9.961729,11.626754 22.33797,11.670192 h 0.03024 C 108.46086,56.20803 118.4193,52.433707 118.4193,44.581278 c 0,-0.177535 0.0107,-1.049302 0.0143,-1.848771 l -7.43244,0.71661 -0.25621,3.669729 c -0.0308,0.442221 -0.38256,0.793984 -0.82483,0.825724 l -8.80765,0.628714 h -0.0643 c -0.43769,0 -0.81518,-0.321299 -0.87983,-0.760855 l -0.505248,-3.425176 h -7.186691 l -0.50494,3.425176 c -0.06785,0.460935 -0.479932,0.792542 -0.944115,0.758466 l -8.80766,-0.628415 c -0.442273,-0.03172 -0.794282,-0.383749 -0.825134,-0.82603 l -0.255907,-3.669729 z"
     style="fill:#ff7f00;fill-opacity:1;stroke-width:1"
     id="path890-8-09" />
  <path
     sodipodi:nodetypes="ccccccccccccccccsssccccccccccccccccccccccccsssssssssssssssssssssssssss"
     id="path890-3"
     style="fill:#ff7f00;fill-opacity:1;stroke-width:1"
     d="m 90.889569,7.1 c -2.32651,0.5171825 -4.62802,1.2371825 -6.785788,2.323217 0.04934,1.905281 0.172436,3.730604 0.422126,5.58487 -0.837944,0.536889 -1.718392,0.997653 -2.501096,1.626045 -0.79523,0.611738 -1.607293,1.197253 -2.327398,1.912737 -1.4385,-0.951491 -2.961015,-1.845696 -4.529536,-2.635029 -1.690712,1.819576 -3.271662,3.783454 -4.563024,5.980987 0.971601,1.571649 1.985907,3.045024 3.081072,4.443139 h 0.03053 v 13.487567 c 0.02463,1.57e-4 0.04942,1.12e-4 0.07383,0.006 l 8.268627,0.797329 c 0.433129,0.0418 0.772522,0.390489 0.802703,0.824528 l 0.25502,3.64997 7.212698,0.51451 0.49687,-3.368682 c 0.06442,-0.436816 0.439213,-0.760548 0.881038,-0.760548 h 8.723639 c 0.44159,0 0.81631,0.323732 0.88073,0.760548 l 0.49688,3.368682 7.2133,-0.51451 0.25471,-3.649999 c 0.0304,-0.434039 0.36956,-0.78254 0.80271,-0.824529 l 8.26533,-0.797328 c 0.0244,0 0.0489,-0.006 0.0735,-0.006 v -1.075951 h 0.003 V 26.337161 h 0.0307 c 1.0954,-1.398063 2.10874,-2.871438 3.08079,-4.443139 -1.29092,-2.197585 -2.87261,-4.161225 -4.56332,-5.980689 -1.56803,0.789333 -3.09099,1.683292 -4.52954,2.634738 -0.71983,-0.715492 -1.53076,-1.300708 -2.3271,-1.912446 -0.78243,-0.628504 -1.66417,-1.089208 -2.5005,-1.626045 0.249,-1.854318 0.37226,-3.680001 0.42183,-5.585168 C 105.87602,8.3384287 103.575,7.6183769 101.24721,7.1012018 100.31789,8.6631022 99.46774,10.354516 98.727585,12.008024 97.849876,11.8614 96.968324,11.806885 96.085383,11.79636 h -0.01732 -0.01672 c -0.884561,0.0106 -1.765472,0.06502 -2.643405,0.211664 -0.739707,-1.653508 -1.588907,-3.3449218 -2.51963,-4.9068222 z M 84.34773,26.845095 c 2.752315,0 4.983059,2.229265 4.983059,4.980669 0,2.753234 -2.230744,4.983358 -4.983059,4.983358 -2.750949,0 -4.982462,-2.230124 -4.982462,-4.983358 0,-2.751404 2.231513,-4.980669 4.982462,-4.980669 z m 23.44382,0 c 2.75072,0 4.98187,2.229265 4.98187,4.980669 0,2.753234 -2.23115,4.983358 -4.98187,4.983358 -2.75277,0 -4.98365,-2.230124 -4.98365,-4.983358 0,-2.751404 2.23088,-4.980669 4.98365,-4.980669 z m -22.967575,1.973432 c -1.826645,0 -3.307694,1.481199 -3.307694,3.307397 0,1.826249 1.481049,3.306492 3.307694,3.306492 1.827586,0 3.307687,-1.480243 3.307687,-3.306492 0,-1.826198 -1.480101,-3.307397 -3.307687,-3.307397 z m 22.488645,0 c -1.8262,0 -3.3059,1.481199 -3.3059,3.307397 0,1.826249 1.4797,3.306492 3.3059,3.306492 1.82803,0 3.30769,-1.480243 3.30769,-3.306492 0,-1.826198 -1.47971,-3.307397 -3.30769,-3.307397 z m -11.243579,0.961755 c 0.88592,0 1.605718,0.653601 1.605718,1.457729 v 4.587239 c 0,0.804814 -0.719798,1.457729 -1.605718,1.457729 -0.885912,0 -1.603919,-0.652915 -1.603919,-1.457729 v -4.587239 c 0,-0.804128 0.718007,-1.457729 1.603919,-1.457729 z" />
  <rect
     style="fill:#07459e;fill-opacity:1;stroke-width:8;stroke-linecap:square;paint-order:markers fill stroke"
     id="rect1833-8-0"
     width="64"
     height="64"
     x="192"
     y="0"
     ry="9.7718019" />
  <rect
     ry="8.8756256"
     y="2.9347382"
     x="194.93474"
     height="58.130531"
     width="58.130531"
     id="rect1833-0-9-6"
     style="fill:#022659;fill-opacity:1;stroke-width:8;stroke-linecap:square;paint-order:markers fill stroke" />
  <path
     id="path890-8-2-2"
     style="fill:#ff7f00;fill-opacity:1;stroke-width:1"
     d="m 201.70297,42.73251 c 0.003,0.79907 0.0134,1.67446 0.0134,1.84877 0,7.85265 9.96173,11.62675 22.33797,11.67019 h 0.0302 c 12.37624,-0.0434 22.33468,-3.81776 22.33468,-11.67019 0,-0.17754 0.0107,-1.0493 0.0143,-1.84877 l -7.43244,0.71661 -0.25621,3.66973 c -0.0308,0.44222 -0.38256,0.79398 -0.82483,0.82572 l -8.80765,0.62871 h -0.0643 c -0.43769,0 -0.81518,-0.3213 -0.87983,-0.76085 l -0.50525,-3.42518 h -7.18669 l -0.50494,3.42518 c -0.0679,0.46093 -0.47993,0.79254 -0.94411,0.75847 l -8.80766,-0.62842 c -0.44228,-0.0317 -0.79429,-0.38375 -0.82514,-0.82603 l -0.2559,-3.66973 z"
     sodipodi:nodetypes="csccscccccsccccccccc" />
  <path
     d="m 218.88957,7.1 c -2.32651,0.517183 -4.62802,1.237183 -6.78579,2.323217 0.0493,1.905281 0.17244,3.730604 0.42213,5.58487 -0.83795,0.536889 -1.71839,0.997653 -2.5011,1.626045 -0.79523,0.611738 -1.60729,1.197253 -2.3274,1.912737 -1.4385,-0.951491 -2.96101,-1.845696 -4.52953,-2.635029 -1.69071,1.819576 -3.27167,3.783454 -4.56303,5.980987 0.9716,1.571649 1.98591,3.045024 3.08107,4.443139 h 0.0305 v 13.487563 c 0.0246,1.6e-4 0.0494,1.2e-4 0.0738,0.006 l 8.26863,0.79733 c 0.43313,0.0418 0.77252,0.39049 0.8027,0.82453 l 0.25502,3.64997 7.2127,0.51451 0.49687,-3.36868 c 0.0644,-0.43682 0.43922,-0.76055 0.88104,-0.76055 h 8.72364 c 0.44159,0 0.81631,0.32373 0.88073,0.76055 l 0.49688,3.36868 7.2133,-0.51451 0.25471,-3.65 c 0.0304,-0.43404 0.36956,-0.78254 0.80271,-0.82453 l 8.26533,-0.79732 c 0.0244,0 0.0489,-0.006 0.0735,-0.006 v -1.07596 h 0.003 V 26.337161 h 0.0307 c 1.0954,-1.398063 2.10874,-2.871438 3.08079,-4.443139 -1.29092,-2.197585 -2.87261,-4.161225 -4.56332,-5.980689 -1.56803,0.789333 -3.09099,1.683292 -4.52954,2.634738 -0.71983,-0.715492 -1.53076,-1.300708 -2.3271,-1.912446 -0.78243,-0.628504 -1.66417,-1.089208 -2.5005,-1.626045 0.249,-1.854318 0.37226,-3.680001 0.42183,-5.585168 -2.15788,-1.085983 -4.4589,-1.806035 -6.78669,-2.32321 -0.92932,1.5619 -1.77947,3.253314 -2.51962,4.906822 -0.87771,-0.146624 -1.75927,-0.201139 -2.64221,-0.211664 h -0.0173 -0.0167 c -0.88456,0.0106 -1.76547,0.06502 -2.6434,0.211664 -0.73971,-1.653508 -1.58891,-3.344922 -2.51963,-4.906822 z m -6.54184,19.745095 c 2.75231,0 4.98306,2.229265 4.98306,4.980669 0,2.753234 -2.23075,4.983355 -4.98306,4.983355 -2.75095,0 -4.98246,-2.230121 -4.98246,-4.983355 0,-2.751404 2.23151,-4.980669 4.98246,-4.980669 z m 23.44382,0 c 2.75072,0 4.98187,2.229265 4.98187,4.980669 0,2.753234 -2.23115,4.983355 -4.98187,4.983355 -2.75277,0 -4.98365,-2.230121 -4.98365,-4.983355 0,-2.751404 2.23088,-4.980669 4.98365,-4.980669 z m -22.96757,1.973432 c -1.82665,0 -3.3077,1.481199 -3.3077,3.307397 0,1.826249 1.48105,3.306495 3.3077,3.306495 1.82758,0 3.30768,-1.480246 3.30768,-3.306495 0,-1.826198 -1.4801,-3.307397 -3.30768,-3.307397 z m 22.48864,0 c -1.8262,0 -3.3059,1.481199 -3.3059,3.307397 0,1.826249 1.4797,3.306495 3.3059,3.306495 1.82803,0 3.30769,-1.480246 3.30769,-3.306495 0,-1.826198 -1.47971,-3.307397 -3.30769,-3.307397 z m -11.24358,0.961755 c 0.88592,0 1.60572,0.653601 1.60572,1.457729 v 4.587238 c 0,0.80482 -0.7198,1.45773 -1.60572,1.45773 -0.88591,0 -1.60392,-0.65291 -1.60392,-1.45773 v -4.587238 c 0,-0.804128 0.71801,-1.457729 1.60392,-1.457729 z"
     style="fill:#ff7f00;fill-opacity:1;stroke-width:1"
     id="path890-6-6"
     sodipodi:nodetypes="ccccccccccccccccsssccccccccccccccccccccccccsssssssssssssssssssssssssss" />
  <path
     id="path1963-1"
     d="m 239.362,27.07391 9.85218,4.997142 -9.85218,4.855038 z"
     style="fill:#ffffff;fill-opacity:1;stroke-width:8;stroke-linecap:square;paint-order:markers fill stroke" />
  <rect
     style="fill:#07459e;fill-opacity:1;stroke-width:8;stroke-linecap:square;paint-order:markers fill stroke"
     id="rect1833-9-7"
     width="64"
     height="64"
     x="320"
     y="0"
     ry="9.7718019" />
  <rect
     ry="8.8756256"
     y="2.9347382"
     x="322.93475"
     height="58.130531"
     width="58.130531"
     id="rect1833-0-5-9"
     style="fill:#022659;fill-opacity:1;stroke-width:8;stroke-linecap:square;paint-order:markers fill stroke" />
  <path
     id="path890-8-0-2"
     style="fill:#ff7f00;fill-opacity:1;stroke-width:1"
     d="m 329.70297,42.73251 c 0.003,0.79907 0.0134,1.67446 0.0134,1.84877 0,7.85265 9.96173,11.62675 22.33797,11.67019 h 0.0302 c 12.37625,-0.0434 22.33469,-3.81776 22.33469,-11.67019 0,-0.17754 0.0108,-1.0493 0.0143,-1.84877 l -7.43244,0.71661 -0.25621,3.66973 c -0.0308,0.44222 -0.38256,0.79398 -0.82483,0.82572 l -8.80765,0.62871 h -0.0643 c -0.43769,0 -0.81518,-0.3213 -0.87983,-0.76085 l -0.50525,-3.42518 h -7.18669 l -0.50494,3.42518 c -0.0678,0.46093 -0.47993,0.79254 -0.94411,0.75847 l -8.80766,-0.62842 c -0.44228,-0.0317 -0.79429,-0.38375 -0.82514,-0.82603 l -0.2559,-3.66973 z"
     sodipodi:nodetypes="csccscccccsccccccccc" />
  <path
     d="m 346.88957,7.1 c -2.32651,0.517183 -4.62802,1.237183 -6.78579,2.323217 0.0493,1.905281 0.17244,3.730604 0.42213,5.58487 -0.83795,0.536889 -1.7184,0.997653 -2.5011,1.626045 -0.79523,0.611738 -1.60729,1.197253 -2.3274,1.912737 -1.4385,-0.951491 -2.96101,-1.845696 -4.52953,-2.635029 -1.69072,1.819576 -3.27167,3.783454 -4.56303,5.980987 0.9716,1.571649 1.98591,3.045024 3.08107,4.443139 h 0.0305 v 13.487563 c 0.0246,1.6e-4 0.0494,1.2e-4 0.0738,0.006 l 8.26863,0.79733 c 0.43313,0.0418 0.77252,0.39049 0.8027,0.82453 l 0.25502,3.64997 7.2127,0.51451 0.49687,-3.36868 c 0.0644,-0.43682 0.43921,-0.76055 0.88104,-0.76055 h 8.72364 c 0.44159,0 0.8163,0.32373 0.88073,0.76055 l 0.49688,3.36868 7.2133,-0.51451 0.25471,-3.65 c 0.0304,-0.43404 0.36956,-0.78254 0.80271,-0.82453 l 8.26533,-0.79732 c 0.0244,0 0.0489,-0.006 0.0735,-0.006 v -1.07596 h 0.003 V 26.337161 h 0.0308 c 1.0954,-1.398063 2.10874,-2.871438 3.08079,-4.443139 -1.29092,-2.197585 -2.87261,-4.161225 -4.56332,-5.980689 -1.56803,0.789333 -3.09099,1.683292 -4.52954,2.634738 -0.71983,-0.715492 -1.53076,-1.300708 -2.3271,-1.912446 -0.78243,-0.628504 -1.66417,-1.089208 -2.5005,-1.626045 0.249,-1.854318 0.37226,-3.680001 0.42183,-5.585168 -2.15788,-1.085983 -4.4589,-1.806035 -6.78669,-2.32321 -0.92932,1.5619 -1.77947,3.253314 -2.51963,4.906822 -0.87771,-0.146624 -1.75926,-0.201139 -2.6422,-0.211664 h -0.0173 -0.0167 c -0.88456,0.0106 -1.76547,0.06502 -2.64341,0.211664 -0.7397,-1.653508 -1.5889,-3.344922 -2.51962,-4.906822 z m -6.54184,19.745095 c 2.75231,0 4.98306,2.229265 4.98306,4.980669 0,2.753234 -2.23075,4.983355 -4.98306,4.983355 -2.75095,0 -4.98246,-2.230121 -4.98246,-4.983355 0,-2.751404 2.23151,-4.980669 4.98246,-4.980669 z m 23.44382,0 c 2.75072,0 4.98187,2.229265 4.98187,4.980669 0,2.753234 -2.23115,4.983355 -4.98187,4.983355 -2.75277,0 -4.98365,-2.230121 -4.98365,-4.983355 0,-2.751404 2.23088,-4.980669 4.98365,-4.980669 z m -22.96758,1.973432 c -1.82664,0 -3.30769,1.481199 -3.30769,3.307397 0,1.826249 1.48105,3.306495 3.30769,3.306495 1.82759,0 3.30769,-1.480246 3.30769,-3.306495 0,-1.826198 -1.4801,-3.307397 -3.30769,-3.307397 z m 22.48865,0 c -1.8262,0 -3.3059,1.481199 -3.3059,3.307397 0,1.826249 1.4797,3.306495 3.3059,3.306495 1.82803,0 3.30769,-1.480246 3.30769,-3.306495 0,-1.826198 -1.47971,-3.307397 -3.30769,-3.307397 z m -11.24358,0.961755 c 0.88592,0 1.60572,0.653601 1.60572,1.457729 v 4.587238 c 0,0.80482 -0.7198,1.45773 -1.60572,1.45773 -0.88591,0 -1.60392,-0.65291 -1.60392,-1.45773 v -4.587238 c 0,-0.804128 0.71801,-1.457729 1.60392,-1.457729 z"
     style="fill:#ff7f00;fill-opacity:1;stroke-width:1"
     id="path890-4-0"
     sodipodi:nodetypes="ccccccccccccccccsssccccccccccccccccccccccccsssssssssssssssssssssssssss" />
  <path
     style="fill:#ffffff;fill-opacity:1;stroke-width:8;stroke-linecap:square;paint-order:markers fill stroke"
     d="m 337.03318,27.07391 -9.85218,4.997142 9.85218,4.855038 z"
     id="path1963-0-2" />
  <rect
     style="fill:#07459e;fill-opacity:1;stroke-width:8;stroke-linecap:square;paint-order:markers fill stroke"
     id="rect1833-7-7"
     width="64"
     height="64"
     x="0"
     y="64"
     ry="9.7718019" />
  <rect
     ry="8.8756256"
     y="66.934738"
     x="2.9347534"
     height="58.130531"
     width="58.130531"
     id="rect1833-0-1-5"
     style="fill:#022659;fill-opacity:1;stroke-width:8;stroke-linecap:square;paint-order:markers fill stroke" />
  <path
     id="path890-8-7-9"
     style="fill:#ff7f00;fill-opacity:1;stroke-width:1"
     d="m 9.7029701,106.73251 c 0.003,0.79907 0.0134,1.67446 0.0134,1.84877 0,7.85265 9.9617299,11.62675 22.3379699,11.67019 h 0.0302 c 12.37625,-0.0434 22.33469,-3.81776 22.33469,-11.67019 0,-0.17754 0.0108,-1.0493 0.0143,-1.84877 l -7.43244,0.71661 -0.25621,3.66973 c -0.0308,0.44222 -0.38256,0.79398 -0.82483,0.82572 l -8.80765,0.62871 h -0.0643 c -0.43769,0 -0.81518,-0.3213 -0.87983,-0.76085 l -0.50525,-3.42518 h -7.18669 l -0.50494,3.42518 c -0.0678,0.46093 -0.47993,0.79254 -0.94411,0.75847 l -8.80766,-0.62842 c -0.44228,-0.0317 -0.79429,-0.38375 -0.82514,-0.82603 l -0.2559,-3.66973 z"
     sodipodi:nodetypes="csccscccccsccccccccc" />
  <path
     d="m 26.88957,71.1 c -2.32651,0.517183 -4.62802,1.237183 -6.78579,2.323217 0.0493,1.905281 0.17244,3.730604 0.42213,5.58487 -0.83795,0.536889 -1.7184,0.997653 -2.5011,1.626045 -0.79523,0.611738 -1.60729,1.197253 -2.3274,1.912737 -1.4385,-0.951491 -2.96101,-1.845696 -4.52953,-2.635029 -1.6907199,1.819576 -3.2716699,3.783454 -4.5630299,5.980987 0.9716,1.571649 1.98591,3.045024 3.08107,4.443139 h 0.0305 v 13.487564 c 0.0246,1.6e-4 0.0494,1.2e-4 0.0738,0.006 l 8.2686299,0.79733 c 0.43313,0.0418 0.77252,0.39049 0.8027,0.82453 l 0.25502,3.64997 7.2127,0.51451 0.49687,-3.36868 c 0.0644,-0.43682 0.43921,-0.76055 0.88104,-0.76055 h 8.72364 c 0.44159,0 0.8163,0.32373 0.88073,0.76055 l 0.49688,3.36868 7.2133,-0.51451 0.25471,-3.65 c 0.0304,-0.43404 0.36956,-0.78254 0.80271,-0.82453 l 8.26533,-0.79732 c 0.0244,0 0.0489,-0.006 0.0735,-0.006 v -1.07596 h 0.003 V 90.337161 h 0.0308 c 1.0954,-1.398063 2.10874,-2.871438 3.08079,-4.443139 -1.29092,-2.197585 -2.87261,-4.161225 -4.56332,-5.980689 -1.56803,0.789333 -3.09099,1.683292 -4.52954,2.634738 -0.71983,-0.715492 -1.53076,-1.300708 -2.3271,-1.912446 -0.78243,-0.628504 -1.66417,-1.089208 -2.5005,-1.626045 0.249,-1.854318 0.37226,-3.680001 0.42183,-5.585168 -2.15788,-1.085983 -4.4589,-1.806035 -6.78669,-2.32321 -0.92932,1.5619 -1.77947,3.253314 -2.51963,4.906822 -0.87771,-0.146624 -1.75926,-0.201139 -2.6422,-0.211664 h -0.0173 -0.0167 c -0.88456,0.0106 -1.76547,0.06502 -2.64341,0.211664 -0.7397,-1.653508 -1.5889,-3.344922 -2.51962,-4.906822 z m -6.54184,19.745095 c 2.75231,0 4.98306,2.229265 4.98306,4.980669 0,2.753234 -2.23075,4.983356 -4.98306,4.983356 -2.75095,0 -4.98246,-2.230122 -4.98246,-4.983356 0,-2.751404 2.23151,-4.980669 4.98246,-4.980669 z m 23.44382,0 c 2.75072,0 4.98187,2.229265 4.98187,4.980669 0,2.753234 -2.23115,4.983356 -4.98187,4.983356 -2.75277,0 -4.98365,-2.230122 -4.98365,-4.983356 0,-2.751404 2.23088,-4.980669 4.98365,-4.980669 z m -22.96758,1.973432 c -1.82664,0 -3.30769,1.481199 -3.30769,3.307397 0,1.826249 1.48105,3.306495 3.30769,3.306495 1.82759,0 3.30769,-1.480246 3.30769,-3.306495 0,-1.826198 -1.4801,-3.307397 -3.30769,-3.307397 z m 22.48865,0 c -1.8262,0 -3.3059,1.481199 -3.3059,3.307397 0,1.826249 1.4797,3.306495 3.3059,3.306495 1.82803,0 3.30769,-1.480246 3.30769,-3.306495 0,-1.826198 -1.47971,-3.307397 -3.30769,-3.307397 z m -11.24358,0.961755 c 0.88592,0 1.60572,0.653601 1.60572,1.457729 v 4.587238 c 0,0.804821 -0.7198,1.457731 -1.60572,1.457731 -0.88591,0 -1.60392,-0.65291 -1.60392,-1.457731 v -4.587238 c 0,-0.804128 0.71801,-1.457729 1.60392,-1.457729 z"
     style="fill:#ff7f00;fill-opacity:1;stroke-width:1"
     id="path890-2-2"
     sodipodi:nodetypes="ccccccccccccccccsssccccccccccccccccccccccccsssssssssssssssssssssssssss" />
  <path
     id="path1963-0-9-2"
     d="m 27.07391,111.067 4.99714,9.85218 4.85504,-9.85218 z"
     style="fill:#ffffff;fill-opacity:1;stroke-width:8;stroke-linecap:square;paint-order:markers fill stroke" />
  <rect
     style="fill:#07459e;fill-opacity:1;stroke-width:8;stroke-linecap:square;paint-order:markers fill stroke"
     id="rect1833-2-9"
     width="64"
     height="64"
     x="128"
     y="64"
     ry="9.7718019" />
  <rect
     ry="8.8756256"
     y="66.934738"
     x="130.93472"
     height="58.130531"
     width="58.130531"
     id="rect1833-0-2-7"
     style="fill:#022659;fill-opacity:1;stroke-width:8;stroke-linecap:square;paint-order:markers fill stroke" />
  <path
     id="path890-8-6-3"
     style="fill:#ff7f00;fill-opacity:1;stroke-width:1"
     d="m 137.70297,106.73252 c 0.003,0.79907 0.0134,1.67446 0.0134,1.84877 0,7.85265 9.96173,11.62675 22.33797,11.67019 h 0.0302 c 12.37625,-0.0434 22.33469,-3.81776 22.33469,-11.67019 0,-0.17754 0.0107,-1.0493 0.0143,-1.84877 l -7.43244,0.71661 -0.25621,3.66973 c -0.0308,0.44222 -0.38256,0.79398 -0.82482,0.82572 l -8.80766,0.62871 h -0.0643 c -0.43769,0 -0.81518,-0.3213 -0.87983,-0.76085 l -0.50525,-3.42518 h -7.18669 l -0.50494,3.42518 c -0.0679,0.46093 -0.47993,0.79254 -0.94411,0.75847 l -8.80766,-0.62842 c -0.44228,-0.0317 -0.79429,-0.38375 -0.82514,-0.82603 l -0.2559,-3.66973 z"
     sodipodi:nodetypes="csccscccccsccccccccc" />
  <path
     d="m 154.88957,71.1 c -2.32651,0.517183 -4.62802,1.237183 -6.78579,2.323217 0.0493,1.905281 0.17244,3.730604 0.42213,5.58487 -0.83795,0.536889 -1.71839,0.997653 -2.5011,1.626045 -0.79523,0.611738 -1.60729,1.197253 -2.3274,1.912737 -1.4385,-0.951491 -2.96101,-1.845696 -4.52953,-2.635029 -1.69072,1.819576 -3.27167,3.783454 -4.56303,5.980987 0.9716,1.571647 1.98591,3.045027 3.08107,4.443137 h 0.0305 v 13.487576 c 0.0246,1.6e-4 0.0494,1.2e-4 0.0738,0.006 l 8.26863,0.79733 c 0.43313,0.0418 0.77252,0.39049 0.8027,0.82453 l 0.25502,3.64997 7.2127,0.51451 0.49687,-3.36868 c 0.0644,-0.43682 0.43921,-0.76055 0.88104,-0.76055 h 8.72364 c 0.44159,0 0.8163,0.32373 0.88073,0.76055 l 0.49688,3.36868 7.2133,-0.51451 0.25471,-3.65 c 0.0304,-0.43404 0.36956,-0.78254 0.80271,-0.82453 l 8.26533,-0.79732 c 0.0244,0 0.0489,-0.006 0.0735,-0.006 v -1.07596 h 0.003 V 90.337164 h 0.0308 c 1.0954,-1.39807 2.10874,-2.87144 3.08079,-4.443142 -1.29092,-2.197585 -2.87261,-4.161225 -4.56332,-5.980689 -1.56803,0.789333 -3.09099,1.683292 -4.52954,2.634738 -0.71983,-0.715492 -1.53076,-1.300708 -2.3271,-1.912446 -0.78243,-0.628504 -1.66417,-1.089208 -2.5005,-1.626045 0.249,-1.854318 0.37226,-3.680001 0.42183,-5.585168 -2.15788,-1.085983 -4.4589,-1.806035 -6.78669,-2.32321 -0.92932,1.5619 -1.77947,3.253314 -2.51963,4.906822 -0.87771,-0.146624 -1.75926,-0.201139 -2.6422,-0.211664 h -0.0173 -0.0167 c -0.88456,0.0106 -1.76547,0.06502 -2.6434,0.211664 -0.73971,-1.653508 -1.58891,-3.344922 -2.51963,-4.906822 z m -6.54184,19.745094 c 2.75232,0 4.98306,2.22927 4.98306,4.98067 0,2.75323 -2.23074,4.983366 -4.98306,4.983366 -2.75095,0 -4.98246,-2.230136 -4.98246,-4.983366 0,-2.7514 2.23151,-4.98067 4.98246,-4.98067 z m 23.44382,0 c 2.75072,0 4.98187,2.22927 4.98187,4.98067 0,2.75323 -2.23115,4.983366 -4.98187,4.983366 -2.75277,0 -4.98365,-2.230136 -4.98365,-4.983366 0,-2.7514 2.23088,-4.98067 4.98365,-4.98067 z m -22.96757,1.97343 c -1.82665,0 -3.3077,1.4812 -3.3077,3.3074 0,1.82625 1.48105,3.306504 3.3077,3.306504 1.82758,0 3.30768,-1.480254 3.30768,-3.306504 0,-1.8262 -1.4801,-3.3074 -3.30768,-3.3074 z m 22.48864,0 c -1.8262,0 -3.30589,1.4812 -3.30589,3.3074 0,1.82625 1.47969,3.306504 3.30589,3.306504 1.82803,0 3.30769,-1.480254 3.30769,-3.306504 0,-1.8262 -1.47971,-3.3074 -3.30769,-3.3074 z m -11.24358,0.96176 c 0.88592,0 1.60572,0.6536 1.60572,1.45773 v 4.587244 c 0,0.804822 -0.7198,1.457732 -1.60572,1.457732 -0.88591,0 -1.60392,-0.65291 -1.60392,-1.457732 v -4.587244 c 0,-0.80413 0.71801,-1.45773 1.60392,-1.45773 z"
     style="fill:#ff7f00;fill-opacity:1;stroke-width:1"
     id="path890-1-6"
     sodipodi:nodetypes="ccccccccccccccccsssccccccccccccccccccccccccsssssssssssssssssssssssssss" />
  <path
     style="fill:#ffffff;fill-opacity:1;stroke-width:8;stroke-linecap:square;paint-order:markers fill stroke"
     d="m 155.07391,82.83218 4.99714,-9.85218 4.85504,9.85218 z"
     id="path1963-0-9-1-1" />
  <rect
     ry="0"
     y="64"
     x="256"
     height="64"
     width="64"
     id="rect885-35-4"
     style="fill:#ff00ef;fill-opacity:1;stroke-width:8;stroke-linecap:square;paint-order:markers fill stroke" />
  <rect
     style="fill:#000000;fill-opacity:1;stroke-width:8;stroke-linecap:square;paint-order:markers fill stroke"
     id="rect1833-6-7"
     width="64"
     height="64"
     x="256"
     y="64"
     ry="0" />
  <rect
     ry="8.8756256"
     y="66.934738"
     x="258.93472"
     height="58.130531"
     width="58.130531"
     id="rect1833-0-15-8"
     style="fill:#ffffff;fill-opacity:0.0746836;stroke-width:8;stroke-linecap:square;paint-order:markers fill stroke" />
  <path
     id="path890-8-9-4"
     style="fill:#000000;fill-opacity:1;stroke-width:1"
     d="m 265.70297,106.73251 c 0.003,0.79907 0.0134,1.67446 0.0134,1.84877 0,7.85265 9.96173,11.62675 22.33797,11.67019 h 0.0302 c 12.37625,-0.0434 22.33469,-3.81776 22.33469,-11.67019 0,-0.17754 0.0107,-1.0493 0.0143,-1.84877 l -7.43244,0.71661 -0.25621,3.66973 c -0.0308,0.44222 -0.38256,0.79398 -0.82482,0.82572 l -8.80766,0.62871 h -0.0643 c -0.43769,0 -0.81518,-0.3213 -0.87983,-0.76085 l -0.50525,-3.42518 h -7.18669 l -0.50494,3.42518 c -0.0679,0.46093 -0.47993,0.79254 -0.94411,0.75847 l -8.80766,-0.62842 c -0.44228,-0.0317 -0.79429,-0.38375 -0.82514,-0.82603 l -0.2559,-3.66973 z"
     sodipodi:nodetypes="csccscccccsccccccccc" />
  <path
     d="m 282.88957,72.224478 c -2.32651,0.517183 -4.62802,1.237183 -6.78579,2.323217 0.0493,1.905281 0.17244,3.730604 0.42213,5.58487 -0.83795,0.536889 -1.71839,0.997653 -2.5011,1.626045 -0.79523,0.611738 -1.60729,1.197253 -2.3274,1.912737 -1.4385,-0.951491 -2.96101,-1.845696 -4.52953,-2.635029 -1.69072,1.819576 -3.27167,3.783454 -4.56303,5.980987 0.9716,1.571649 1.98591,3.045024 3.08107,4.443139 h 0.0305 v 13.487566 c 0.0246,1.6e-4 0.0494,1.2e-4 0.0738,0.006 l 8.26863,0.79733 c 0.43313,0.0418 0.77252,0.39049 0.8027,0.82453 l 0.25502,3.64997 7.2127,0.51451 0.49687,-3.36868 c 0.0644,-0.43682 0.43921,-0.76055 0.88104,-0.76055 h 8.72364 c 0.44159,0 0.8163,0.32373 0.88073,0.76055 l 0.49688,3.36868 7.2133,-0.51451 0.25471,-3.65 c 0.0304,-0.43404 0.36956,-0.78254 0.80271,-0.82453 l 8.26533,-0.79732 c 0.0244,0 0.0489,-0.006 0.0735,-0.006 v -1.07596 h 0.003 V 91.461639 h 0.0308 c 1.0954,-1.398063 2.10874,-2.871438 3.08079,-4.443139 -1.29092,-2.197585 -2.87261,-4.161225 -4.56332,-5.980689 -1.56803,0.789333 -3.09099,1.683292 -4.52954,2.634738 -0.71983,-0.715492 -1.53076,-1.300708 -2.3271,-1.912446 -0.78243,-0.628504 -1.66417,-1.089208 -2.5005,-1.626045 0.249,-1.854318 0.37226,-3.680001 0.42183,-5.585168 -2.15788,-1.085983 -4.4589,-1.806035 -6.78669,-2.32321 -0.92932,1.5619 -1.77947,3.253314 -2.51963,4.906822 -0.87771,-0.146624 -1.75926,-0.201139 -2.6422,-0.211664 h -0.0173 -0.0167 c -0.88456,0.0106 -1.76547,0.06502 -2.6434,0.211664 -0.73971,-1.653508 -1.58891,-3.344922 -2.51963,-4.906822 z m -6.54184,19.745095 c 2.75232,0 4.98306,2.229265 4.98306,4.980668 0,2.75324 -2.23074,4.983359 -4.98306,4.983359 -2.75095,0 -4.98246,-2.230119 -4.98246,-4.983359 0,-2.751403 2.23151,-4.980668 4.98246,-4.980668 z m 23.44382,0 c 2.75072,0 4.98187,2.229265 4.98187,4.980668 0,2.75324 -2.23115,4.983359 -4.98187,4.983359 -2.75277,0 -4.98365,-2.230119 -4.98365,-4.983359 0,-2.751403 2.23088,-4.980668 4.98365,-4.980668 z m -22.96757,1.973432 c -1.82665,0 -3.3077,1.481196 -3.3077,3.307396 0,1.82625 1.48105,3.306499 3.3077,3.306499 1.82758,0 3.30768,-1.480249 3.30768,-3.306499 0,-1.8262 -1.4801,-3.307396 -3.30768,-3.307396 z m 22.48864,0 c -1.8262,0 -3.30589,1.481196 -3.30589,3.307396 0,1.82625 1.47969,3.306499 3.30589,3.306499 1.82803,0 3.30769,-1.480249 3.30769,-3.306499 0,-1.8262 -1.47971,-3.307396 -3.30769,-3.307396 z m -11.24358,0.961755 c 0.88592,0 1.60572,0.653601 1.60572,1.457731 v 4.587239 c 0,0.80482 -0.7198,1.45773 -1.60572,1.45773 -0.88591,0 -1.60392,-0.65291 -1.60392,-1.45773 v -4.587239 c 0,-0.80413 0.71801,-1.457731 1.60392,-1.457731 z"
     style="fill:#000000;fill-opacity:1;stroke-width:1"
     id="path890-49-5"
     sodipodi:nodetypes="ccccccccccccccccsssccccccccccccccccccccccccsssssssssssssssssssssssssss" />
  <path
     sodipodi:nodetypes="csccscccccsccccccccc"
     d="m 345.91732,99.124471 c 8.2e-4,0.219783 0.003,0.460558 0.003,0.508502 0,2.159857 2.73996,3.197907 6.14403,3.209867 h 0.008 c 3.40405,-0.0123 6.14311,-1.05007 6.14311,-3.209867 0,-0.04883 0.003,-0.288608 0.005,-0.508502 l -2.04428,0.197103 -0.0704,1.009346 c -0.008,0.12164 -0.10525,0.21839 -0.22687,0.22712 l -2.42253,0.17293 h -0.0177 c -0.12034,0 -0.22421,-0.0884 -0.242,-0.20928 l -0.13899,-0.942085 H 351.081 l -0.13884,0.942085 c -0.0186,0.12678 -0.13205,0.21799 -0.25967,0.20862 l -2.42253,-0.17284 c -0.12173,-0.009 -0.21847,-0.10556 -0.22696,-0.2272 l -0.0704,-1.009356 z"
     style="fill:#ffffff;fill-opacity:1;stroke-width:1"
     id="path890-8-6-1-3" />
  <path
     sodipodi:nodetypes="ccccccccccccccccsssccccccccccccccccccccccccsssssssssssssssssssssssssss"
     id="path890-1-1-6"
     style="fill:#ffffff;fill-opacity:1;stroke-width:1"
     d="m 350.64446,89.633103 c -0.63991,0.142242 -1.27293,0.340284 -1.86643,0.638996 0.0139,0.524045 0.0475,1.026096 0.11603,1.536108 -0.23047,0.147665 -0.47262,0.274402 -0.68792,0.447241 -0.21872,0.168257 -0.44207,0.329302 -0.64014,0.526095 -0.39566,-0.261707 -0.81442,-0.507656 -1.24584,-0.724761 -0.46503,0.500472 -0.89986,1.040633 -1.25506,1.64506 0.26724,0.432279 0.54623,0.837527 0.84746,1.222077 h 0.008 v 3.709729 c 0.006,4.5e-5 0.0139,3.3e-5 0.0203,0.0017 l 2.27428,0.219304 c 0.11911,0.01156 0.21247,0.107402 0.22078,0.226787 l 0.0701,1.003921 1.98385,0.14152 0.13667,-0.926557 c 0.0177,-0.120144 0.12081,-0.209187 0.24233,-0.209187 h 2.39943 c 0.12142,0 0.22451,0.08905 0.24223,0.209187 l 0.13668,0.926557 1.98399,-0.14152 0.0701,-1.00393 c 0.008,-0.119375 0.1017,-0.215236 0.2208,-0.226785 l 2.27335,-0.219304 c 0.006,0 0.0139,-0.0017 0.0202,-0.0017 v -0.295938 h 8.3e-4 v -3.413456 h 0.008 c 0.30128,-0.384534 0.58,-0.789782 0.84737,-1.222077 -0.35508,-0.60444 -0.7901,-1.144537 -1.25514,-1.644977 -0.43128,0.217105 -0.85016,0.462987 -1.24584,0.724679 -0.19799,-0.196794 -0.42104,-0.357756 -0.64006,-0.526014 -0.2152,-0.172868 -0.45773,-0.299585 -0.68775,-0.44724 0.0684,-0.510027 0.10231,-1.012177 0.11603,-1.53619 -0.59352,-0.298697 -1.22641,-0.496747 -1.86666,-0.638995 -0.25561,0.429598 -0.48944,0.894819 -0.69303,1.349612 -0.24141,-0.04033 -0.48387,-0.05532 -0.72674,-0.05822 h -0.005 -0.005 c -0.24331,0.0029 -0.4856,0.01789 -0.72706,0.05822 -0.20347,-0.454793 -0.43704,-0.920014 -0.69303,-1.349612 z m -1.79932,5.430851 c 0.75702,0 1.37058,0.613155 1.37058,1.369924 0,0.757271 -0.61356,1.370662 -1.37058,1.370662 -0.75665,0 -1.37042,-0.613391 -1.37042,-1.370662 0,-0.756769 0.61377,-1.369924 1.37042,-1.369924 z m 6.44818,0 c 0.75658,0 1.37026,0.613155 1.37026,1.369924 0,0.757271 -0.61368,1.370662 -1.37026,1.370662 -0.75715,0 -1.37074,-0.613391 -1.37074,-1.370662 0,-0.756769 0.61359,-1.369924 1.37074,-1.369924 z m -6.31719,0.542788 c -0.50241,0 -0.90978,0.407401 -0.90978,0.909695 0,0.502306 0.40737,0.909445 0.90978,0.909445 0.50268,0 0.90977,-0.407139 0.90977,-0.909445 0,-0.502294 -0.40709,-0.909695 -0.90977,-0.909695 z m 6.18546,0 c -0.50229,0 -0.90927,0.407401 -0.90927,0.909695 0,0.502306 0.40698,0.909445 0.90927,0.909445 0.5028,0 0.90977,-0.407139 0.90977,-0.909445 0,-0.502294 -0.40698,-0.909695 -0.90977,-0.909695 z m -3.09253,0.26453 c 0.24367,0 0.44166,0.179772 0.44166,0.400946 v 1.261711 c 0,0.221362 -0.19799,0.400946 -0.44166,0.400946 -0.24366,0 -0.44116,-0.179584 -0.44116,-0.400946 v -1.261711 c 0,-0.221174 0.1975,-0.400946 0.44116,-0.400946 z" />
</svg>
